<?xml version="1.0" encoding="UTF-8"?>
<svg id="Layer_2" data-name="Layer 2" xmlns="http://www.w3.org/2000/svg" xmlns:xlink="http://www.w3.org/1999/xlink" viewBox="0 0 982.66 192.23">
  <defs>
    <style>
      .cls-1 {
        fill: #4b2e61;
      }

      .cls-2 {
        fill: #060707;
      }

      .cls-3 {
        fill: url(#linear-gradient);
      }
    </style>
    <linearGradient id="linear-gradient" x1="0" y1="107.38" x2="640.81" y2="107.38" gradientUnits="userSpaceOnUse">
      <stop offset="0" stop-color="#4b2e61"/>
      <stop offset="1" stop-color="#000"/>
    </linearGradient>
  </defs>
  <g id="Layer_1-2" data-name="Layer 1">
    <g>
      <path class="cls-1" d="M798,69.93c0,27.51-20.71,47.55-48.59,47.55h-19.63v36.23h-36.22V22.54h55.84c27.88,0,48.59,19.88,48.59,47.39ZM760.85,70.01c0-9.32-6.27-15.92-15.78-15.92h-15.3v31.83h15.3c9.51,0,15.78-6.59,15.78-15.92ZM871.09,52.04v31.89h-13.53c-12.34,0-17.51,5.41-17.51,18.32v51.45h-34.85V52.52h23.35l5.44,11.23c7.14-8.25,15.83-11.71,27.87-11.71h9.23ZM869.2,103.11c0-31.37,23.74-53.91,56.73-53.91s56.73,22.54,56.73,53.91-23.85,53.91-56.73,53.91-56.73-22.65-56.73-53.91ZM925.93,125.71c12.71,0,21.82-9.22,21.82-22.6s-9.11-22.6-21.82-22.6-21.82,9.22-21.82,22.6,9.11,22.6,21.82,22.6h0Z"/>
      <path class="cls-3" d="M104.44,69.93c0,27.51-20.71,47.55-48.59,47.55h-19.63v36.23H0V22.54h55.84c27.88,0,48.59,19.88,48.59,47.39ZM67.29,70.01c0-9.32-6.27-15.92-15.78-15.92h-15.3v31.83h15.3c9.51,0,15.78-6.59,15.78-15.92ZM177.53,52.04v31.89h-13.53c-12.34,0-17.51,5.41-17.51,18.32v51.45h-34.85V52.52h23.35l5.44,11.23c7.14-8.25,15.83-11.71,27.87-11.71h9.23ZM278.78,161.48h8.57c8.23,0,12.59-4.68,12.59-13.39v-65.36l34.85-35.56v103.8c0,25.93-15.88,41.25-42.92,41.25h-13.1v-30.75ZM453.49,102.16c0,3.05-.27,6.1-.72,9.23h-75.13c2.28,11.61,9.65,17.61,20.66,17.61,8.14,0,14.94-3.57,18.29-9.49h34.68c-7.12,23.09-27.59,37.52-52.98,37.52-31.57,0-54.96-23.08-54.96-53.99s23.2-53.83,54.96-53.83,55.2,23.27,55.2,52.95h0ZM378.25,92.08h40.9c-3.06-10.11-10.35-15.57-20.86-15.57s-17.22,5.52-20.04,15.57ZM511.9,157.02c-32.45,0-55.87-22.73-55.87-54.04s23.31-53.61,55.98-53.61c28.44,0,49.76,17.93,53.57,44.84h-33.95c-2.93-8.26-10.65-13.61-19.73-13.61-12.25,0-20.96,9.31-20.96,22.49s8.82,22.71,20.96,22.71c9.35,0,16.93-5.73,19.81-14.76h34.25c-3.94,27.48-25.56,45.99-54.05,45.99h0ZM640.81,123.18v30.53h-23.98c-22.38,0-35.98-13.68-35.98-36.16v-38.18h-18.52v-8.15l45.33-48.28h7.16v29.58h25.42v26.84h-24.54v32.2c0,7.25,4.37,11.62,11.73,11.62h13.38ZM238.6,133c-1.35,1.42-3.23,2.22-5.2,2.21-1.97.02-3.87-.78-5.22-2.21l-39.45-39.47c-.06-.05-.11-.11-.17-.17-2.8-2.89-2.72-7.5.17-10.3l10.09-10.12c2.9-2.84,7.54-2.84,10.44,0l24.14,24.19,35.93-35.94c-9.72-7.59-22.46-11.98-36.96-11.98-32.99,0-56.73,22.54-56.73,53.91s23.74,53.91,56.73,53.91,56.73-22.65,56.73-53.91c0-6.32-.98-12.28-2.8-17.78l-47.7,47.66Z"/>
      <path class="cls-1" d="M299.95,30.42v42.89l34.85-35.56V3.56c0-3.18-3.86-4.76-6.09-2.49l-28.77,29.35Z"/>
      <path class="cls-2" d="M654.31,138.79c0-8.76,5.92-14.91,14.2-14.91s13.97,6.16,13.97,14.91-5.44,14.92-14.2,14.92c-8.29,0-13.97-6.39-13.97-14.92Z"/>
    </g>
  </g>
</svg>